/* XPM */
static char *cc8c47955dcd4b1dc94871af3a8f3c08eZnEYa7fUlStVnH8[] = {
/* columns rows colors chars-per-pixel */
"64 64 44 1 ",
"  c black",
". c gray11",
"X c #28200C",
"o c #302410",
"O c #382C14",
"+ c #202020",
"@ c #282828",
"# c #2C2C2C",
"$ c gray19",
"% c #343434",
"& c gray22",
"* c #403018",
"= c #483818",
"- c #543C1C",
"; c #5C4020",
": c #6C4824",
"> c #744C28",
", c gray25",
"< c #484848",
"1 c #4C4C4C",
"2 c gray33",
"3 c gray36",
"4 c #646464",
"5 c gray44",
"6 c #7C7C7C",
"7 c #80502C",
"8 c #885830",
"9 c #905C34",
"0 c #9C6038",
"q c #A0643C",
"w c #A86840",
"e c #B47044",
"r c #BC7848",
"t c #C87C4C",
"y c #D08050",
"u c #DC8854",
"i c #E88C58",
"p c #F0945C",
"a c #FCA470",
"s c gray55",
"d c #989898",
"f c gray66",
"g c #B4B4B4",
"h c #FCBC9C",
/* pixels */
"+ttttttttttttttttttttttttttq +ttttttttttttq +tttttttttttq ttttq ",
"+rtrugfuudewertr9eqwtuee9w0: +terwtrrr6sur0 +ee0w0qre8w0: 6yyq> ",
"+tiuddtuiq890ruuw00eesuwwqq: +ur9qww666dr0> +q90990r0878- ygfe: ",
"+yfs5sqet9970qrr99w90w6qq97= +rq778066sr9:* +7ew8799>:>;o 8e52= ",
"+rsq9qeeq98qrw099ew70q6q88:O +yr07:9978:>;X +>r077>:895-X :73;# ",
"+80990wrq89weddw8dd90wq977;o +uewq799:::;=X +>rreq999>;;o ry5<@ ",
"+:7q90rs09trww6tw6eq8897:-*X +e::wwww:7::=X +qteewwe0::>* w6>*. ",
"+t5970eqw0w9e89re700778>;;@X +q;7rew7->:;=X +qyyrrte097>O 381$. ",
"+d6098q55856q7777797:>8;-7%X +r7qrre>;:>;&+ +1>sqwq83544% ==O+. ",
"+9e8>834973642:;:::;-:7>-<;o +w>98998877>=X +&:q80we9845%       ",
"+ww777::;&:2--;1:;-&-:77:>;o +8;>=->0>;>7;O +89e0w692133# ww8:; ",
"+e0>7::,-,&O=,1>;-;-;277:3;o +9999773-:97;* +rrr6r59478;X yue5; ",
"+w98>;:>31<<:>:7-->4>:8>:;=X +qe09782890>-o +eer5r68>77:o e6q3$ ",
"+537:>72>>277>;;:747>:7>;=oX +wrw8:2888>:*o +wer9555393;o 081&o ",
"+11:-:;===-*;12-:2;==,;***XX +89;;*->;;--oX +8w0943q5653O 8>=@. ",
"+,&=#@XXoX.Xo#$oo$*OXooXoXX  +=-OoXoOoOoX   +tw:3s55555>* >1#.  ",
"+                            +              +r0-8688>732#       ",
"97:0q997;5r84>-++++++++++++++++++++++++++++++6r79e997>:<# sst5q7",
":>059e532>e>::= ++w089wwey09q78q+++7rue7q8:;+st87898:>:;@ eur5w9",
"=>q5>7>1:79992* +wer0esytwwqqe07=++whu99we>* wr0>7092>>1# eder8*",
"2849--;;087w5:O +sw0996rw9wwqr9>*++tu9798>=@ 80999742>>1* sf60-,",
"5560;:0q8:957;o :e9>999989ew008;o +rq::7:-*o 89809>-=;:-O 98:;;8",
"85w939q9;-3>2;o 7q:9w08q9:9q89>*o +w-*;;-OXX :q9>;=#13<Oo -:8;;:",
"66w873;8-;-;3;o :09qq00q9;>777;*o +:-ooXXXX  euw-$=<57:&o =8w7;0",
"te9>;>88:-->3;O 7wqq99008;:797;-O ++         gu>;3594>>=X >90>-w",
"rte5>>8>-;::>:O >09::>:98>::7>::$ rr89qq97; +7>8899w9q7-o qsww>5",
"dyys>:7>:;->:=o ;89-=:37::;;:::;O er0eqq99; +>>7972995>;o 4s6err",
"rss9;-:-:-;=--o 79>:743:;;-;:>7;o tw>w087:* +yr797>43>:-o wqqdft",
"dt7=*:72;;-;7:X 77>:1224>:=->5>:O ut7907:;O +00:>739>:>-X tq6s6d",
"ts;=:087;;;:8-X :7;7-:8>72::798;O yyq808>-o +98::84w;*7:o w0q:9t",
"rq::88::;1:>7;O  7:;::477789>:7-o t08->7>-X +>-;7069-=7:X 00;;qr",
"e9>>:::>;::::=X  ;;:>>>:7>89>::*o 0:-=--7;O +>;>909:;3>;X tw7756",
"w7:;;72>;-;;;-o +;;-;;>;-;>>:-*XX 79778;8>* +quyq=;8747:* w8405e",
"9>:1;<;:;=--:-o ++*OooOOo*=OOooX  >8790:9>o +9tt8>ws4451# s9996r",
"8::;>;,;;;;::*O +++               9q98;::=X +8y97eds>951O rfq46s",
"q7;::;;-:::7:=o ++etyyut09w0:--*++rre9=8=** +wu90ws64w6>* gfq9q6",
"98:-*;,;;-::;=X ++tiitr9qq99>8:; +tdw:*>**o +fg>--7>56q2$ dq0989",
"7:*O--=;:>7:;$+ ++eeew877787>8:= +tr8>>>=-O +yy;;9q759>;# 2;9880",
":3*-:1--:>;;-*o ++8wq0>:>>>>88;O +q80>9>>>, +0>:7we7>553@ sw9>72",
";-=-;-==--***OX ++08:>:;>-;>7;*X +;7989>54= +tw>0qw8-:44@ wq7-O-",
"+ooOOoo+oXoXXX  ++98<--=-*=;;*XX +-9090>:-* +fs7ww>1=-52# :<*XX.",
"                ++7-=OoOoXooXX   +q9:0q:0>O +fs78:=-343;X +     ",
"++++++qe8:795699wt+              +e098790:o +e63;;;;32,%. +35>;+",
"++00wtew778995eerte0977>=+++++++++qww97q9;o +:2*OoOO$#+.  +83>-+",
"++9ree908>75799ee0w8we8;* +eysw>++ww88997;o ++            +>:;*+",
"++etewqqw048q999569897;*X +wte8; +87-*;;;*X ++++++++++++++++++++",
"++qre8900q9707850098>;-*o +edw7, +-=OXoXXXX ++9ryrtr87rddr90re5+",
"++yte87e0w8999648997;;-*X +qd8-O ++         ++2pdyw999qyteerq>2 ",
"++y087quetrw9668>947:--*X +;9;OX +8wwq90>763++fauew706rrsdiw55- ",
"++0989wuee09w4773948;---o +73;#X +wrew99q7>, +udrq870ww0eee>>-% ",
"++9w00qreq998978>5667;;:O +7;oXX +qq07::>;-o +ff69579ew909:7:;O ",
"++9qw998790>705w565>77:*@ ++     +>;==*O*oXX +dr6q408ewww:;77:@ ",
"++0q897>88:>23eq647>>3;*o ++++++++           +eessre50ew7>>3;-O ",
"++q070070>>q2193>>>>87;;o +e80997>;8qwyyqrq;++ee6dydr1w9;128>-o ",
"++rtw90800q64:7:>7238>:;o +75eersw;9wwry087: +yrsydrdss:=<271<o ",
"++eeqq97qe4>7;>:333;1;;;O +795rewe9ee9789;7- +ruyyee679;<::7>&X ",
"++ww9>9807>432;<2>>;;;>:X +8yew90679w::9q87O +euww04;:11<;2871# ",
"++8>=>008:>8:>:<::;;88:OX +eds877w977:709:;o +ut7er8*;=,2277>;@ ",
"++9::w98>-:>::--::::89*oX +uyrw97r6>:::78:-o +ur9se4;:111:747-o ",
"++dq78::;-;:-;;;37::77=;* +yeeww9wrq>:7887:O +iu5dw4:21-;:799:O ",
"++dq7;;:>:>>:;:>72;>97::* +erwqqqqe9:>q9>82o +yt065842;;>8888-o ",
"++9>>:;;::;:>::3>:>>:;:1o +es6qq0qwq8>7;=;OX +89>789>--;:7:87-X ",
"++;>7;;;**;::-=::>>:-*-&X +9q97>223;*O*;;OXX++55-;:;*O*-<-;1-XX+",
"&&>:;,*O*O**==O**,,**ooo+&&>7:-=,,*Oo*OoOoX.&&64***%****OO*Oooo#"
};
