/* XPM */
static char *_0c91c1984b849508927d805776b7b61xuNzstnF4F9EYzkS[] = {
/* columns rows colors chars-per-pixel */
"64 64 25 1 ",
"  c black",
". c #181818",
"X c gray11",
"o c #182118",
"O c #28200C",
"+ c #302410",
"@ c #202020",
"# c #2E2B22",
"$ c #282828",
"% c #343434",
"& c #403018",
"* c #483818",
"= c #543C1C",
"- c #5C4020",
"; c #4C4436",
": c #6C4824",
"> c #744C28",
", c #524A42",
"< c #5E5246",
"1 c #736352",
"2 c #7B6B5A",
"3 c #885830",
"4 c #9C6038",
"5 c #B47044",
"6 c #94846B",
/* pixels */
"$$$$$$$$$$$$$$$$$$$$$$$$$$$$$$$$$$$$$$$$$$$$$$$$$$$$$$$$$$$$$$$$",
"1111111111,;;;X$$;;;,111111111111111111111,;;;X$$;;;,11111111111",
",<<,;,<<<,11<# $$%;,;<<<1<,<<,<,11<;,;<;;;;;<# $$%<<<<;##;;;;,<,",
"11,<,;,1111<1# $$%%;<<<11<,,;,,<1<1,<<<,,<,;,# $$%11<;;##;;,;;11",
"11;;,,<<<1<<<# $$%;<,<<1<<,<,,<,<1<<,,<2,<;,;# $$%<<1<,,;#,<<<11",
"<1,<<,,11111;# $$%<;<<<<<<,;;,;,<1<1211<,,;;;# $$%,<1;;<<;;,<<12",
"<1<<,<<<<1<1<# $$%11<<,,;<<<,;;,;;<<11<<<;;#;# $$%<<<11<<1<11<1<",
"<,<,<<111<<<<# $$%1<1,;,,;<;,,%,,;,<1<<,;,;#;# $$%;<,<<<121<<111",
"     .....o### $$###o....            .....o### $$###o....       ",
"               $$X                             $$X              ",
"@@@@@@@@@@@@@@@$$@@@@@@@@@@@@@@@@@@@@@@@@@@@@@@$$@@@@@@@@@@@@@@@",
"$;;;,111111111111111111111,;;;X$$=--:333333333333333333333:--=X$",
"$%,<12<<<<;%<,<,11,<<,<<<;;,<# $$*>>:::>>>>::::>44>>>4>333>:>& $",
"$%<<1<<,;<<,;;<<1<,<,<<,,<<<,# $$*3:-->:>:333>3>333>43344>333& $",
"$%<<<,,,%,,,<<<<1<1,;;,<,<,<1# $$*>>>=*:>>>3:>>>445>3443433:>& $",
"$%,<<,,;,<<11,1<<<11,<<<1<1<1# $$*>-=---:33343344444>>3333333& $",
"$%;,<<,<1<1,11<<,<<1,<111<<11# $$*:-=:>>>>>434334333::333443>& $",
"$%<<,<;<<121111,<,<<<<<1162<<# $$*:::::>33>>344433>3>>:4>>>:-& $",
"$%<<;<1<1<1<1<<11,,<222221111# $$*-=:=&>>>3>>4333>>->3::>>3>-& $",
"$###o....            .....o### $$+++OOOOO            OOOOOO+++ $",
"$X                             $$X                             $",
"$@@@@@@@@@@@@@@@@@@@@@@@@@@@@@@$$@@@@@@@@@@@@@@@@@@@@@@@@@@@@@@$",
"1111111111,;;;X$$;;;,111111111111111111111,;;;X$$;;;,11111111111",
"<112121266226# $$%12622121<<1,1<<<,1;#;#%,<1<# $$%<;<1<<;;;,<1<1",
"2211226226622# $$%112211<2221,<,;<,,,;;;#;;1<# $$%1<,<1,<,<,<112",
"112121266261<# $$%111111<<11<<<;;;;<<,;;%%1,1# $$%1,,,,,,<<<<112",
"221112222262<# $$%1,122111,,;;%;;;;;<;,,<;,<<# $$%,,;<,1<1<<1111",
"12<11<<12121<# $$%11<1111<,,;<;;;,;,,<,;;,,<<# $$%,<11<<12212112",
"<21,;<<11111<# $$%<<<11<;;;;%;%;,<;,,11<<<,;<# $$%<1<<21122<111<",
"1<<1,<<,,<<<1# $$%111,<12;<<;;,;;,<<<<<,,<<,<# $$%12226126612221",
"     .....o### $$###o....            .....o### $$###o....       ",
"               $$X                             $$X              ",
"@@@@@@@@@@@@@@@$$@@@@@@@@@@@@@@@@@@@@@@@@@@@@@@$$@@@@@@@@@@@@@@@",
"$=--:333333333333333333333:--=X$$;;;,111111111111111111111,;;;X$",
"$*--=:>3>333>>3>343433433>3:3& $$%11112122112<<11222121<1<,<,# $",
"$*->-*>>3>>>-::>344334443>>>>& $$%1,11221221111,1121<<1<<1<<<# $",
"$*>>>=:>>>33-=->>>333>>3453-:& $$%<226266121<1<<,111<111,<,,,# $",
"$*>:--&=>>>>3-:->333>333333--& $$%<21221122<,11<%;<;2<<<<<;;;# $",
"$*::::-*:>33>>>>>>4343>3443:-& $$%1<22122<<<;;<,<;,<<<1<<,,;;# $",
"$*>-*--&=>>33>3>3>:33>>>>>4::& $$%1<2211<1<<,%,<,;;,;,<<<<11,# $",
"$*::---=&=>>33433>33>3>:>3>>-& $$%<<1121<<<<<;;<<,<,<,<<1<<1<# $",
"$+++OOOOO            OOOOOO+++ $$###o....            .....o### $",
"$X                             $$X                             $",
"$@@@@@@@@@@@@@@@@@@@@@@@@@@@@@@$$@@@@@@@@@@@@@@@@@@@@@@@@@@@@@@$",
"1111111111,;;;X$$;;;,111111111111111111111,;;;X$$;;;,11111111111",
"<,;,<<;;;;;,;# $$%<<,,<1<1<;;<<,,,11<121<,<<<# $$%1<112116221261",
",,;;;,;;;1,;,# $$%<1<<<<<,<,;,<<<<<111<,;;;,,# $$%<<126222<21112",
"1,,;<;<<,<1<;# $$%1<1<112<,,;;;<1,1<1111<;,;,# $$%<1<66612211<11",
"1,1<;,<,<,1<,# $$%1<1<2111,,;;%111<<<11<21,%,# $$%11166661111<1<",
"<<<;;,,<<,<<1# $$%121<1<<<<<;,;;,,<,<<1<<<<,;# $$%22216661<11<<1",
"<1<,;;,,1<<16# $$%21<<,<1<<;;;#%%<,<,122<1<<;# $$%112112262<<<1<",
",,1112<<22111# $$%<11<<<,<<,;,,;;;%<<<1221111# $$%1,<1<26221<1<1",
"     .....o### $$###o....            .....o### $$###o....       ",
"               $$X                             $$X              ",
"@@@@@@@@@@@@@@@$$@@@@@@@@@@@@@@@@@@@@@@@@@@@@@@$$@@@@@@@@@@@@@@@",
"$;;;,111111111111111111111,;;;X$$=--:333333333333333333333:--=X$",
"$%<<1<11211121<<111<;;,;<<<11# $$*3>3:>>>444343>>33>>>:->33>4& $",
"$%<<<1,22662<,<<<1<1<;,<<1<21# $$*->:::>>>434333>3:>>>::::>34& $",
"$%,;,1<22222<1,;,<,<1,;111<21# $$*=>>:>:>:3>33>>>:-:::>:3>>3>& $",
"$%;%,;212262<,;,;<<<<1,<1122<# $$*>>::---->>33>::*>->3>>33>33& $",
"$%,;,<<112261<,%;,,1<1<<1111<# $$*=:>:=-----3>3>:=::-33344>:-& $",
"$%,;;,<<11<1<<<,;,,1<11<<1<11# $$*:=-=:*-:=->:33>>->:>433>33-& $",
"$###o....            .....o### $$+++OOOOO            OOOOOO+++ $",
"$X                             $$X                             $"
};
